<?xml version="1.0" encoding="UTF-8" standalone="no"?>
<!-- Generator: Adobe Illustrator 16.0.0, SVG Export Plug-In . SVG Version: 6.00 Build 0)  -->

<svg
   xmlns:dc="http://purl.org/dc/elements/1.1/"
   xmlns:cc="http://creativecommons.org/ns#"
   xmlns:rdf="http://www.w3.org/1999/02/22-rdf-syntax-ns#"
   xmlns:svg="http://www.w3.org/2000/svg"
   xmlns="http://www.w3.org/2000/svg"
   xmlns:sodipodi="http://sodipodi.sourceforge.net/DTD/sodipodi-0.dtd"
   xmlns:inkscape="http://www.inkscape.org/namespaces/inkscape"
   version="1.1"
   id="Capa_1"
   x="0px"
   y="0px"
   width="455.672"
   height="455.672"
   viewBox="0 0 455.672 455.672"
   enable-background="new 0 0 600 600"
   xml:space="preserve"
   inkscape:version="0.91 r13725"
   sodipodi:docname="yin-yang-final.svg"><metadata
     id="metadata3402"><rdf:RDF><cc:Work
         rdf:about=""><dc:format>image/svg+xml</dc:format><dc:type
           rdf:resource="http://purl.org/dc/dcmitype/StillImage" /><dc:title></dc:title></cc:Work></rdf:RDF></metadata><defs
     id="defs3400" /><sodipodi:namedview
     pagecolor="#ffffff"
     bordercolor="#666666"
     borderopacity="1"
     objecttolerance="10"
     gridtolerance="10"
     guidetolerance="10"
     inkscape:pageopacity="0"
     inkscape:pageshadow="2"
     inkscape:window-width="1440"
     inkscape:window-height="851"
     id="namedview3398"
     showgrid="false"
     inkscape:zoom="0.76485384"
     inkscape:cx="362.37351"
     inkscape:cy="183.11305"
     inkscape:window-x="0"
     inkscape:window-y="0"
     inkscape:window-maximized="1"
     inkscape:current-layer="g3390"
     fit-margin-top="0"
     fit-margin-left="0"
     fit-margin-right="0"
     fit-margin-bottom="0" /><g
     id="g3390"
     transform="matrix(1,0,0,-1,0,455.673)"
     style="display:inline"><path
       d="M 227.83448,0.001 C 353.66727,0.001 455.672,102.00573 455.672,227.83852 455.672,353.66726 353.66626,455.673 227.83448,455.673 102.00574,455.673 0,353.66726 0,227.83852 0.001,102.00472 102.00574,0.001 227.83448,0.001 Z"
       id="path3392"
       inkscape:connector-curvature="0"
       style="fill:#323330;fill-opacity:1" /><path
       d="m 358.9615,329.8635 c -72.18,16.449 -130.025,-37.676 -134.127,-122.258 -2.717,-55.945 -46.883,-100.803 -99.889,-101.461 -53.141002,-0.667 -99.563002,42.803 -103.244002,98.274 -4.242,63.875 15.859,120.393 59.398,166.676 54.135002,57.549 121.479002,79.652 198.770002,59.799 71.846,-18.469 118.268,-66.408 144.348,-132.068 -22.274,10.907 -42.639,25.882 -65.256,31.038 z m -230.93,-72.654 c -22.594,0 -40.910002,-18.313 -40.910002,-40.905 0,-22.594 18.316002,-40.911 40.910002,-40.911 22.59,0 40.906,18.316 40.906,40.911 0.001,22.593 -18.316,40.905 -40.906,40.905 z"
       id="path3394"
       inkscape:connector-curvature="0"
       style="fill:#ffffff" /><circle
       cx="336.78748"
       cy="216.3015"
       r="40.908001"
       id="circle3396"
       style="fill:#ffffff" /></g></svg>