<?xml version="1.0" encoding="utf-8"?>
<!-- Generator: Adobe Illustrator 16.0.0, SVG Export Plug-In . SVG Version: 6.00 Build 0)  -->
<!DOCTYPE svg PUBLIC "-//W3C//DTD SVG 1.1//EN" "http://www.w3.org/Graphics/SVG/1.1/DTD/svg11.dtd">
<svg version="1.1" id="Capa_1" xmlns="http://www.w3.org/2000/svg" xmlns:xlink="http://www.w3.org/1999/xlink" x="0px" y="0px"
	 width="600px" height="600px" viewBox="0 0 600 600" enable-background="new 0 0 600 600" xml:space="preserve">
<g>
	<path d="M299.998,74.938c124.301,0,225.064,100.763,225.064,225.064c0,124.297-100.764,225.061-225.064,225.061
		c-124.297,0-225.061-100.764-225.061-225.061C74.938,175.7,175.701,74.938,299.998,74.938z"/>
	<path fill="#FFFFFF" d="M431.125,402.027c-72.18,16.449-130.025-37.676-134.127-122.258
		c-2.717-55.945-46.883-100.803-99.889-101.461c-53.141-0.667-99.563,42.803-103.244,98.274
		c-4.242,63.875,15.859,120.393,59.398,166.676c54.135,57.549,121.479,79.652,198.77,59.799
		c71.846-18.469,118.268-66.408,144.348-132.068C474.107,381.896,453.742,396.871,431.125,402.027z M200.195,329.373
		c-22.594,0-40.91-18.313-40.91-40.905c0-22.594,18.316-40.911,40.91-40.911c22.59,0,40.906,18.316,40.906,40.911
		C241.102,311.061,222.785,329.373,200.195,329.373z"/>
	<circle fill="#FFFFFF" cx="408.951" cy="288.465" r="40.908"/>
</g>
</svg>
